<?xml version="1.0" encoding="UTF-8" standalone="no"?>
<svg width="96px" height="96px" viewBox="0 0 96 96" version="1.1" xmlns="http://www.w3.org/2000/svg" xmlns:xlink="http://www.w3.org/1999/xlink">
    <!-- Generator: Sketch 3.8.3 (29802) - http://www.bohemiancoding.com/sketch -->
    <title>noun_1025573_cc</title>
    <desc>Created with Sketch.</desc>
    <defs></defs>
    <g id="Page-1" stroke="none" stroke-width="1" fill="none" fill-rule="evenodd">
        <g id="noun_1025573_cc" fill="#27AE60">
            <g id="Group">
                <g id="Shape">
                    <g>
                        <path d="M48,3.18146816 C38.9536,3.18146816 30.4,22.5024663 30.4,42.9398806 C30.4,64.3219548 40.4448,66.794928 48,66.794928 C55.5552,66.794928 65.6,64.3219548 65.6,42.9398806 C65.6,22.5024663 57.0464,3.18146816 48,3.18146816 M48,69.975601 C34.0032,69.975601 27.2,61.1317398 27.2,42.9398806 C27.2,17.6344462 38.1616,0.000795168248 48,0.000795168248 C57.8384,0.000795168248 68.8,17.6344462 68.8,42.9398806 C68.8,61.1317398 61.9968,69.975601 48,69.975601"></path>
                        <path d="M48,69.975601 C47.1168,69.975601 46.4,69.2631303 46.4,68.3852645 L46.4,39.7592076 C46.4,38.8813418 47.1168,38.1688711 48,38.1688711 C48.8832,38.1688711 49.6,38.8813418 49.6,39.7592076 L49.6,68.3852645 C49.6,69.2631303 48.8832,69.975601 48,69.975601"></path>
                        <path d="M48,54.0722361 C47.5904,54.0722361 47.1808,53.9163831 46.8688,53.6062675 C46.2432,52.9844459 46.2432,51.9793532 46.8688,51.3575317 L53.2688,44.9961857 C53.8944,44.3743641 54.9056,44.3743641 55.5312,44.9961857 C56.1568,45.6180072 56.1568,46.6230999 55.5312,47.2449215 L49.1312,53.6062675 C48.8192,53.9163831 48.4096,54.0722361 48,54.0722361"></path>
                        <path d="M48,62.0239186 C47.5904,62.0239186 47.1808,61.8680656 46.8688,61.55795 L40.4688,55.196604 C39.8432,54.5747824 39.8432,53.5696897 40.4688,52.9478682 C41.0944,52.3260466 42.1056,52.3260466 42.7312,52.9478682 L49.1312,59.3092142 C49.7568,59.9310357 49.7568,60.9361284 49.1312,61.55795 C48.8192,61.8680656 48.4096,62.0239186 48,62.0239186"></path>
                        <path d="M17.6,74.7466105 C16.7168,74.7466105 16,74.0341398 16,73.156274 L16,47.8762851 C16,46.996829 16.7168,46.2859486 17.6,46.2859486 C18.4832,46.2859486 19.2,46.996829 19.2,47.8762851 L19.2,73.156274 C19.2,74.0341398 18.4832,74.7466105 17.6,74.7466105"></path>
                        <path d="M17.6,60.4335821 C17.1904,60.4335821 16.7808,60.2777291 16.4688,59.9676135 C15.8432,59.3457919 15.8432,58.3406992 16.4688,57.7188777 L21.2688,52.9478682 C21.8944,52.3260466 22.9056,52.3260466 23.5312,52.9478682 C24.1568,53.5696897 24.1568,54.5747824 23.5312,55.196604 L18.7312,59.9676135 C18.4192,60.2777291 18.0096,60.4335821 17.6,60.4335821"></path>
                        <path d="M17.6,66.794928 C17.1904,66.794928 16.7808,66.6390751 16.4688,66.3289594 L11.6688,61.55795 C11.0432,60.9361284 11.0432,59.9310357 11.6688,59.3092142 C12.2944,58.6873926 13.3056,58.6873926 13.9312,59.3092142 L18.7312,64.0802236 C19.3568,64.7020452 19.3568,65.7071379 18.7312,66.3289594 C18.4192,66.6390751 18.0096,66.794928 17.6,66.794928"></path>
                        <path d="M16,92.240312 L19.2,92.240312 L19.2,74.6989004 C18.1584,74.7625139 17.0416,74.7625139 16,74.6989004 L16,92.240312 L16,92.240312 Z M20.8,95.420985 L14.4,95.420985 C13.5168,95.420985 12.8,94.7085142 12.8,93.8306485 L12.8,72.9447593 C12.8,72.4835617 13,72.0446288 13.3504,71.7424649 C13.7008,71.4418913 14.168,71.3051223 14.6256,71.3687358 C16.4704,71.6311413 18.7296,71.6311413 20.5744,71.3687358 C21.0352,71.3051223 21.4992,71.4418913 21.8496,71.7424649 C22.2,72.0446288 22.4,72.4835617 22.4,72.9447593 L22.4,93.8306485 C22.4,94.7085142 21.6832,95.420985 20.8,95.420985 L20.8,95.420985 L20.8,95.420985 Z"></path>
                        <path d="M78.4,74.7466105 C77.5152,74.7466105 76.8,74.0341398 76.8,73.156274 L76.8,47.8762851 C76.8,46.996829 77.5152,46.2859486 78.4,46.2859486 C79.2848,46.2859486 80,46.996829 80,47.8762851 L80,73.156274 C80,74.0341398 79.2848,74.7466105 78.4,74.7466105"></path>
                        <path d="M78.4,60.4335821 C77.9904,60.4335821 77.5808,60.2777291 77.2688,59.9676135 C76.6432,59.3457919 76.6432,58.3406992 77.2688,57.7188777 L82.0688,52.9478682 C82.6944,52.3260466 83.7056,52.3260466 84.3312,52.9478682 C84.9568,53.5696897 84.9568,54.5747824 84.3312,55.196604 L79.5312,59.9676135 C79.2192,60.2777291 78.8096,60.4335821 78.4,60.4335821"></path>
                        <path d="M78.4,66.794928 C77.9904,66.794928 77.5808,66.6390751 77.2688,66.3289594 L72.4688,61.55795 C71.8432,60.9361284 71.8432,59.9310357 72.4688,59.3092142 C73.0944,58.6873926 74.1056,58.6873926 74.7312,59.3092142 L79.5312,64.0802236 C80.1568,64.7020452 80.1568,65.7071379 79.5312,66.3289594 C79.2192,66.6390751 78.8096,66.794928 78.4,66.794928"></path>
                        <path d="M76.8,92.240312 L80,92.240312 L80,74.6989004 C78.9568,74.7625139 77.8432,74.7625139 76.8,74.6989004 L76.8,92.240312 L76.8,92.240312 Z M81.6,95.420985 L75.2,95.420985 C74.3168,95.420985 73.6,94.7085142 73.6,93.8306485 L73.6,72.9447593 C73.6,72.4835617 73.8,72.0446288 74.1504,71.7424649 C74.5008,71.4418913 74.9664,71.3051223 75.4256,71.3687358 C77.2688,71.6311413 79.5312,71.6311413 81.3744,71.3687358 C81.8336,71.3051223 82.2992,71.4418913 82.648,71.7424649 C82.9984,72.0446288 83.2,72.4835617 83.2,72.9447593 L83.2,93.8306485 C83.2,94.7085142 82.4848,95.420985 81.6,95.420985 L81.6,95.420985 L81.6,95.420985 Z"></path>
                        <path d="M78.4,74.7466105 C69.3024,74.7466105 63.6752,70.2364162 61.6736,61.3384835 L64.7968,60.6450968 C66.4736,68.0958233 70.7968,71.5659375 78.4,71.5659375 C85.104,71.5659375 92.8,69.4062606 92.8,52.5582357 C92.8,36.467211 85.6672,20.6751696 78.4,20.6751696 C74.6352,20.6751696 70.6736,24.9420425 67.8016,32.0874243 L64.8304,30.9073947 C68.256,22.383191 73.2016,17.4944966 78.4,17.4944966 C88.7712,17.4944966 96,35.9742067 96,52.5582357 C96,67.4883148 90.2432,74.7466105 78.4,74.7466105"></path>
                        <path d="M17.6,74.7466105 C5.7568,74.7466105 0,67.4883148 0,52.5582357 C0,35.9742067 7.2288,17.4944966 17.6,17.4944966 C22.7984,17.4944966 27.744,22.383191 31.1696,30.9073947 L28.1984,32.0874243 C25.3264,24.9420425 21.3648,20.6751696 17.6,20.6751696 C10.3328,20.6751696 3.2,36.467211 3.2,52.5582357 C3.2,69.4062606 10.896,71.5659375 17.6,71.5659375 C25.2032,71.5659375 29.5264,68.0958233 31.2032,60.6450968 L34.3264,61.3384835 C32.3248,70.2364162 26.6976,74.7466105 17.6,74.7466105"></path>
                        <path d="M94.4,95.420985 L1.6,95.420985 C0.7168,95.420985 0,94.7085142 0,93.8306485 C0,92.9527827 0.7168,92.240312 1.6,92.240312 L94.4,92.240312 C95.2848,92.240312 96,92.9527827 96,93.8306485 C96,94.7085142 95.2848,95.420985 94.4,95.420985"></path>
                        <path d="M46.4,92.240312 L49.6,92.240312 L49.6,69.9278909 C48.52,69.9915044 47.48,69.9915044 46.4,69.9278909 L46.4,92.240312 L46.4,92.240312 Z M51.2,95.420985 L44.8,95.420985 C43.9168,95.420985 43.2,94.7085142 43.2,93.8306485 L43.2,68.1912435 C43.2,67.7364072 43.3952,67.3038357 43.736,67.0032621 C44.0768,66.7010982 44.5248,66.5563776 44.9872,66.6120393 C47.096,66.8585415 48.904,66.8585415 51.0128,66.6120393 C51.4736,66.5611486 51.9232,66.7010982 52.264,67.0032621 C52.6048,67.3038357 52.8,67.7364072 52.8,68.1912435 L52.8,93.8306485 C52.8,94.7085142 52.0832,95.420985 51.2,95.420985 L51.2,95.420985 L51.2,95.420985 Z"></path>
                    </g>
                </g>
            </g>
        </g>
    </g>
</svg>