<?xml version="1.0" encoding="UTF-8" standalone="no"?>
<svg width="97px" height="96px" viewBox="0 0 97 96" version="1.1" xmlns="http://www.w3.org/2000/svg" xmlns:xlink="http://www.w3.org/1999/xlink">
    <!-- Generator: Sketch 3.8.3 (29802) - http://www.bohemiancoding.com/sketch -->
    <title>noun_1048665_cc</title>
    <desc>Created with Sketch.</desc>
    <defs></defs>
    <g id="Page-1" stroke="none" stroke-width="1" fill="none" fill-rule="evenodd">
        <g id="noun_1048665_cc" transform="translate(0.000000, -1.000000)" fill="#27AE60">
            <g id="Group" transform="translate(0.000000, 0.637820)">
                <path d="M10.566675,0.364095629 C8.52329801,0.65115753 6.9724191,3.02471691 6.98285093,5.84899783 L6.98285093,17.7615198 C6.98285163,24.1180553 9.34873325,29.8154974 12.7481331,34.1305248 C15.2391947,37.2925545 18.407334,39.7983979 21.9414208,40.900951 L21.9414208,51.8707554 C21.6352907,51.6155237 21.3245533,51.3564526 21.0065102,51.1422918 C16.5658174,48.1521974 11.8537343,48.3569899 7.98008892,48.3569899 C7.84513343,48.3475554 7.70991648,48.3475554 7.57496099,48.3569899 C6.49602953,48.5059982 5.50769719,49.2524998 4.83749658,50.4246359 C4.16729597,51.596772 3.87297817,53.09354 4.02230064,54.5703557 C4.553428,59.9832686 6.04465172,65.4690621 8.47870792,70.039494 C10.9127644,74.6099258 14.6341784,78.5239521 19.2925074,78.5239521 C20.1441217,78.5239521 21.0263912,78.4379077 21.9414208,78.2239965 L21.9414208,85.3800798 L4.98837494,85.3800798 C4.85341945,85.3706453 4.7182025,85.3706453 4.58324701,85.3800798 C3.15797024,85.47929 1.87948041,86.6166055 1.22946096,88.3635317 C0.579441504,90.1104579 0.656667537,92.2015367 1.4320434,93.8489341 C2.20741926,95.4963315 3.56312104,96.4497135 4.98837494,96.3498842 L92.7453184,96.3498842 C94.1838777,96.3778588 95.5219535,95.3386038 96.2471703,93.6300701 C96.9723872,91.9215365 96.9723872,89.8084275 96.2471703,88.0998939 C95.5219535,86.3913603 94.1838777,85.3521052 92.7453184,85.3800798 L75.7922725,85.3800798 L75.7922725,78.2239965 C76.7073022,78.4379077 77.5895716,78.5239521 78.4411859,78.5239521 C83.0995149,78.5239521 86.8209289,74.6099258 89.2549854,70.039494 C91.6890419,65.4690621 93.1802657,59.9832686 93.7113927,54.5703557 C93.8641298,53.0017037 93.5166926,51.4187848 92.7583327,50.2282291 C91.9999728,49.0376735 90.9046015,48.3555147 89.7536044,48.3569899 C85.8799591,48.3569899 81.1678759,48.1521974 76.7271831,51.1422918 C76.40914,51.3564526 76.0984026,51.6155237 75.7922725,51.8707554 L75.7922725,40.900951 C79.3263593,39.7983979 82.4944986,37.2925545 84.9855602,34.1305248 C88.3849601,29.8154974 90.7508414,24.1180553 90.7508424,17.7615198 L90.7508424,5.84899783 C90.7506222,2.81989539 88.9648366,0.364398342 86.7618904,0.364095629 C83.2070292,0.364081917 79.1444421,1.48389326 75.4806356,4.52062308 C74.1392717,5.63241276 72.9262913,7.13460406 71.8033205,8.84855373 C70.6803498,7.13460406 69.4673693,5.63241276 68.1260054,4.52062308 C64.4621989,1.48389326 60.3996119,0.364081917 56.8447506,0.364095629 C56.7097951,0.354661079 56.5745782,0.354661079 56.4396227,0.364095629 C54.3962457,0.65115753 52.8453668,3.02471691 52.8557986,5.84899783 L52.8557986,17.7615198 C52.8557996,24.1180553 55.221681,29.8154974 58.6210808,34.1305248 C61.1121424,37.2925545 64.2802817,39.7983979 67.8143685,40.900951 L67.8143685,51.8707554 C67.5082384,51.6155237 67.197501,51.3564526 66.8794579,51.1422918 C62.4387651,48.1521974 57.726682,48.3569899 53.8530366,48.3569899 C53.7180811,48.3475554 53.5828642,48.3475554 53.4479087,48.3569899 C52.3689772,48.5059982 51.3806449,49.2524998 50.7104443,50.4246359 C50.0402437,51.596772 49.7459259,53.09354 49.8952483,54.5703557 C50.4263753,59.9832686 51.9175991,65.4690621 54.3516556,70.039494 C56.7857121,74.6099258 60.5071261,78.5239521 65.1654551,78.5239521 C66.0170694,78.5239521 66.8993389,78.4379077 67.8143685,78.2239965 L67.8143685,85.3800798 L29.9193248,85.3800798 L29.9193248,78.2239965 C30.8343545,78.4379077 31.7166239,78.5239521 32.5682382,78.5239521 C37.2265672,78.5239521 40.9479812,74.6099258 43.3820377,70.039494 C45.8160942,65.4690621 47.307318,59.9832686 47.838445,54.5703557 C47.9911821,53.0017037 47.6437449,51.4187848 46.885385,50.2282291 C46.1270251,49.0376735 45.0316538,48.3555147 43.8806567,48.3569899 C40.0070114,48.3569899 35.2949282,48.1521974 30.8542354,51.1422918 C30.5361923,51.3564526 30.2254549,51.6155237 29.9193248,51.8707554 L29.9193248,40.900951 C33.4534116,39.7983979 36.6215509,37.2925545 39.1126125,34.1305248 C42.5120124,29.8154974 44.8778937,24.1180553 44.8778947,17.7615198 L44.8778947,5.84899783 C44.8776745,2.81989539 43.0918889,0.364398342 40.8889427,0.364095629 C37.3340815,0.364081917 33.2714944,1.48389326 29.6076879,4.52062308 C28.266324,5.63241276 27.0533436,7.13460406 25.9303728,8.84855373 C24.8074021,7.13460406 23.5944216,5.63241276 22.2530577,4.52062308 C18.5892512,1.48389326 14.5266642,0.364081917 10.9718029,0.364095629 C10.8368474,0.354661079 10.7016305,0.354661079 10.566675,0.364095629 L10.566675,0.364095629 Z M14.9607549,12.1480652 C16.0865498,12.5749689 17.1981311,13.1247343 18.139451,13.9049479 C20.2224508,15.6314306 21.5713707,17.8191798 21.9725845,21.7037933 C22.2248749,24.4451975 23.9207588,26.5005908 25.9303728,26.5005908 C27.9399868,26.5005908 29.6358707,24.4451975 29.8881611,21.7037933 C30.2893749,17.8191798 31.6382948,15.6314306 33.7212946,13.9049479 C34.6626145,13.1247343 35.7741958,12.5749689 36.8999907,12.1480652 L36.8999907,17.7615198 C36.8999907,20.0653021 35.7755401,23.4274649 33.6901309,26.0745747 C31.6047218,28.7216845 28.7564196,30.5310578 25.9303728,30.5310578 C23.104325,30.5310578 20.2560238,28.7216845 18.1706147,26.0745747 C16.0852055,23.4274649 14.9607549,20.0653021 14.9607549,17.7615198 L14.9607549,12.1480652 L14.9607549,12.1480652 Z M60.8337026,12.1480652 C61.9594975,12.5749689 63.0710788,13.1247343 64.0123987,13.9049479 C66.0953985,15.6314306 67.4443184,17.8191798 67.8455322,21.7037933 C68.0978226,24.4451975 69.7937065,26.5005908 71.8033205,26.5005908 C73.8129345,26.5005908 75.5088184,24.4451975 75.7611088,21.7037933 C76.1623226,17.8191798 77.5112425,15.6314306 79.5942423,13.9049479 C80.5355622,13.1247343 81.6471435,12.5749689 82.7729384,12.1480652 L82.7729384,17.7615198 C82.7729384,20.0653021 81.6484878,23.4274649 79.5630786,26.0745747 C77.4776695,28.7216845 74.6293683,30.5310578 71.8033205,30.5310578 C68.9772737,30.5310578 66.1289715,28.7216845 64.0435624,26.0745747 C61.9581532,23.4274649 60.8337026,20.0653021 60.8337026,17.7615198 L60.8337026,12.1480652 L60.8337026,12.1480652 Z M13.3714068,59.6267499 C15.0308737,59.8750789 16.4787695,60.2993361 17.5161772,60.9979755 C19.0986304,62.0634177 20.2172482,63.3389317 20.6948733,67.0827889 C20.2157633,67.1979718 19.6868293,67.5541476 19.2925074,67.5541476 C17.8819631,67.5541476 16.3772527,66.3457551 14.8984275,63.5690234 C14.3063653,62.4572337 13.8261304,61.0448714 13.3714068,59.6267499 L13.3714068,59.6267499 Z M38.4581751,59.6267499 C38.4676489,59.6267499 38.479875,59.6281212 38.4893388,59.6267499 C38.0346152,61.0448714 37.5543803,62.4572337 36.9623181,63.5690234 C35.4834929,66.3457551 33.9787825,67.5541476 32.5682382,67.5541476 C32.1739163,67.5541476 31.6449823,67.1978347 31.1658723,67.0827889 C31.6434974,63.3389317 32.7621152,62.0634177 34.3445684,60.9979755 C35.3760575,60.3033126 36.8106801,59.8757645 38.4581751,59.6267499 L38.4581751,59.6267499 Z M59.2443545,59.6267499 C60.9038214,59.8750789 62.3517172,60.2993361 63.3891249,60.9979755 C64.9715781,62.0634177 66.0901959,63.3389317 66.567821,67.0827889 C66.088711,67.1979718 65.559777,67.5541476 65.1654551,67.5541476 C63.7549108,67.5541476 62.2502004,66.3457551 60.7713752,63.5690234 C60.179313,62.4572337 59.6990781,61.0448714 59.2443545,59.6267499 L59.2443545,59.6267499 Z M84.3311228,59.6267499 C84.3405966,59.6267499 84.3528227,59.6281212 84.3622865,59.6267499 C83.9075629,61.0448714 83.427328,62.4572337 82.8352658,63.5690234 C81.3564407,66.3457551 79.8517302,67.5541476 78.4411859,67.5541476 C78.046864,67.5541476 77.51793,67.1978347 77.03882,67.0827889 C77.5164451,63.3389317 78.6350629,62.0634177 80.2175161,60.9979755 C81.2490052,60.3033126 82.6836278,59.8757645 84.3311228,59.6267499 L84.3311228,59.6267499 Z" id="Shape"></path>
            </g>
        </g>
    </g>
</svg>