<?xml version="1.0" encoding="UTF-8" standalone="no"?>
<svg width="96px" height="92px" viewBox="0 0 96 92" version="1.1" xmlns="http://www.w3.org/2000/svg" xmlns:xlink="http://www.w3.org/1999/xlink">
    <!-- Generator: Sketch 3.8.3 (29802) - http://www.bohemiancoding.com/sketch -->
    <title>Group</title>
    <desc>Created with Sketch.</desc>
    <defs></defs>
    <g id="Page-1" stroke="none" stroke-width="1" fill="none" fill-rule="evenodd">
        <g id="noun_633315_cc" fill="#27AE60">
            <g id="Group">
                <g>
                    <g>
                        <path d="M90.3529412,9.74468085 L90.355284,21.5735124 L56.4705882,37.3191489 L56.4705882,25.4723653 L90.3529412,9.74468085 L90.3529412,9.74468085 Z M50.8235294,22.5106383 L50.8235294,42.9361702 C50.8235294,45.7060382 52.6884569,47.6729132 54.5110848,46.8253081 L94.0404966,28.4423294 C95.2081758,27.8993054 96,26.3277268 96,24.5531915 L96,4.12765957 C96,1.35779163 94.1350725,-0.609083397 92.3124446,0.238521627 L52.7830328,18.6215004 C51.6153536,19.1645244 50.8235294,20.736103 50.8235294,22.5106383 L50.8235294,22.5106383 Z" id="Shape"></path>
                        <path d="M90.3529412,54.6808511 L90.355284,66.5096827 L56.4705882,82.2553191 L56.4705882,70.4085356 L90.3529412,54.6808511 L90.3529412,54.6808511 Z M50.8235294,67.4468085 L50.8235294,87.8723404 C50.8235294,90.6422084 52.6884569,92.6090834 54.5110848,91.7614783 L94.0404966,73.3784996 C95.2081758,72.8354756 96,71.263897 96,69.4893617 L96,49.0638298 C96,46.2939618 94.1350725,44.3270868 92.3124446,45.1746919 L52.7830328,63.5576706 C51.6153536,64.1006946 50.8235294,65.6722732 50.8235294,67.4468085 L50.8235294,67.4468085 Z" id="Shape" transform="translate(73.411765, 68.468085) scale(1, -1) translate(-73.411765, -68.468085) "></path>
                        <path d="M22.5882353,49.0638298 C13.2318819,49.0638298 5.64705882,38.0900432 5.64705882,24.5531915 C5.64705882,22.8347055 5.76931395,21.1442149 6.00678089,19.50213 C6.5342352,15.8547813 6.95680475,15.2224204 6.95680475,15.2224204 C12.5958414,27.2730363 22.0431762,34.7659574 32.4705882,34.7659574 L35.2941176,34.7659574 C36.8535099,34.7659574 38.1176471,32.936993 38.1176471,30.6808511 C38.1176471,28.4247091 36.8535099,26.5957447 35.2941176,26.5957447 L32.4705882,26.5957447 C22.4951586,26.5957447 13.6333287,18.222283 9.55930211,5.29418691 C8.67967194,2.50285917 6.06670223,2.05796087 4.7632136,4.47757904 C1.69508342,10.1728367 0,17.1816914 0,24.5531915 C0,42.6023271 10.1130974,57.2340426 22.5882353,57.2340426 C24.851962,57.2340426 27.0740828,56.7509134 29.2000598,55.8105854 C30.6913227,55.1509939 31.5306549,52.8672321 31.0747608,50.7096603 C30.6188668,48.5520887 29.0403843,47.3377357 27.5491214,47.997327 C25.956722,48.7016516 24.2909071,49.0638298 22.5882353,49.0638298 L22.5882353,49.0638298 Z" id="Shape"></path>
                        <path d="M56.4705882,47.0212766 C56.4705882,34.6124959 49.5178337,24.5531915 40.9411765,24.5531915 C32.3645192,24.5531915 25.4117647,34.6124959 25.4117647,47.0212766 C25.4117647,48.0076319 25.4558931,48.9855212 25.5428352,49.950152 C25.768395,52.4527562 26.1362404,53.7484292 26.1362404,53.7484292 C22.2185032,57.2889074 17.5184828,59.2765957 12.6492611,59.2765957 C9.89379352,59.2765957 7.15033057,58.6912235 3.44943364,57.4739862 C1.5966633,56.8646039 -0.134886882,59.0234417 0.00799473191,61.7646549 C0.893026914,78.7441796 10.6973396,91.9574468 22.5316141,91.9574468 C31.0630451,91.9574468 38.6239612,85.0617437 42.4607881,74.6807911 C43.4128744,72.1048184 44.1305424,69.0248132 44.1305424,69.0248132 C47.7584606,67.7968362 50.787038,65.109816 52.9887151,61.1992942 L53.0932064,61.0115888 C55.2702371,57.0485851 56.4705882,52.1621209 56.4705882,47.0212766 L56.4705882,47.0212766 Z M48.6000529,56.0577985 C46.9576878,58.9747856 44.5525688,60.8514888 41.4685662,61.4275828 C40.2882332,61.6480697 39.3301869,62.9156851 39.0731994,64.5969535 C37.3718081,75.7278302 30.5173052,83.787234 22.5316141,83.787234 C16.5282315,83.787234 11.2205618,79.2518501 8.20912241,72.378062 C6.76873681,69.0902966 6.42802314,66.6626558 6.42802314,66.6626558 C8.62641366,67.1862629 10.6103786,67.4468085 12.6492611,67.4468085 C19.5005658,67.4468085 26.0854307,64.2172047 31.2860438,58.5297274 C32.3734783,57.3404908 32.7184012,55.1970173 32.1058509,53.4351549 C31.4204639,51.4637934 31.0588235,49.284273 31.0588235,47.0212766 C31.0588235,39.1247798 35.4833037,32.7234043 40.9411765,32.7234043 C46.3990492,32.7234043 50.8235294,39.1247798 50.8235294,47.0212766 C50.8235294,50.2991513 50.0623405,53.3978468 48.68326,55.9083651 L48.6000529,56.0577985 L48.6000529,56.0577985 Z" id="Shape"></path>
                        <ellipse id="Oval" cx="40.9411765" cy="47.0212766" rx="4.23529412" ry="6.12765957"></ellipse>
                    </g>
                </g>
            </g>
        </g>
    </g>
</svg>