<?xml version="1.0" encoding="UTF-8" standalone="no"?>
<svg width="96px" height="96px" viewBox="0 0 96 96" version="1.1" xmlns="http://www.w3.org/2000/svg" xmlns:xlink="http://www.w3.org/1999/xlink">
    <!-- Generator: Sketch 3.8.3 (29802) - http://www.bohemiancoding.com/sketch -->
    <title>tonte</title>
    <desc>Created with Sketch.</desc>
    <defs></defs>
    <g id="Page-1" stroke="none" stroke-width="1" fill="none" fill-rule="evenodd">
        <g id="tonte" fill="#27AE60">
            <g id="Page-1">
                <g id="noun_582237_cc">
                    <g id="Group">
                        <g id="Shape">
                            <polygon points="73.1428571 37.5652174 44.5217391 29.2173913 44.5217391 41.4177391 73.1428571 50.2038261"></polygon>
                            <path d="M31.8012422,62.8215652 C32.3291429,62.7422609 32.8475031,62.6086957 33.3913044,62.6086957 C41.2811925,62.6086957 47.7018634,71.0358261 47.7018634,81.3913043 C47.7018634,82.1050435 47.6032795,82.7853913 47.539677,83.4782609 L70.1249192,83.4782609 C70.0613168,82.7853913 69.962733,82.1050435 69.962733,81.3913043 C69.962733,71.0358261 76.3834034,62.6086957 84.2732922,62.6086957 C84.8170933,62.6086957 85.3354537,62.738087 85.8633539,62.8215652 L85.8633539,58.4347826 L36.991205,43.341913 L18.6450683,2.07026087 C18.0790062,0.793043478 17.0295652,0 15.9006211,0 L3.18012422,0 C1.42151553,0 0,1.86573913 0,4.17391304 C0,6.48208696 1.42151553,8.34782609 3.18012422,8.34782609 L14.0752298,8.34782609 L31.8012422,48.237913 L31.8012422,62.8215652 L31.8012422,62.8215652 L31.8012422,62.8215652 Z"></path>
                            <path d="M44.5217391,81.3913043 C44.5217391,73.3356522 39.5289441,66.7826087 33.3913044,66.7826087 C32.8475031,66.7826087 32.3259627,66.8911304 31.8012422,66.9954783 C30.6754782,67.2083478 29.6133168,67.6257391 28.621118,68.2518261 C24.8749317,70.6017391 22.2608696,75.5895652 22.2608696,81.3913043 C22.2608696,89.4469565 27.2536646,96 33.3913044,96 C37.8148571,96 41.6119255,92.5690435 43.4023354,87.6521739 C43.8793541,86.349913 44.1973665,84.9558261 44.3595528,83.4782609 C44.4390559,82.7895652 44.5217391,82.1050435 44.5217391,81.3913043 L44.5217391,81.3913043 L44.5217391,81.3913043 Z M33.3913044,87.6521739 C30.7581615,87.6521739 28.621118,84.8473043 28.621118,81.3913043 C28.621118,78.669913 29.9535901,76.3784348 31.8012422,75.5144348 C32.3005218,75.2806957 32.8316025,75.1304348 33.3913044,75.1304348 C36.0244472,75.1304348 38.1614907,77.9353043 38.1614907,81.3913043 C38.1614907,82.125913 38.0470062,82.8229565 37.8689192,83.4782609 C37.2106335,85.9033043 35.4647454,87.6521739 33.3913044,87.6521739 L33.3913044,87.6521739 L33.3913044,87.6521739 Z"></path>
                            <path d="M89.0434781,68.2518261 C88.0512792,67.6257391 86.9891177,67.2083478 85.8633539,66.9954783 C85.3386339,66.8953043 84.8170933,66.7826087 84.2732922,66.7826087 C78.1356518,66.7826087 73.1428571,73.3356522 73.1428571,81.3913043 C73.1428571,82.1050435 73.2255403,82.7895652 73.3050435,83.4782609 C73.4672298,84.9558261 73.7852422,86.349913 74.2622609,87.6521739 C76.0526708,92.5690435 79.8529196,96 84.2732922,96 C90.4109318,96 95.4037265,89.4469565 95.4037265,81.3913043 C95.4037265,75.5853913 92.7896648,70.6017391 89.0434781,68.2518261 L89.0434781,68.2518261 L89.0434781,68.2518261 Z M84.2732922,87.6521739 C82.1998507,87.6521739 80.4539627,85.9033043 79.795677,83.4782609 C79.6175901,82.8229565 79.5031055,82.125913 79.5031055,81.3913043 C79.5031055,77.9353043 81.6401493,75.1304348 84.2732922,75.1304348 C84.8329935,75.1304348 85.3640747,75.2806957 85.8633539,75.5144348 C87.7110065,76.3784348 89.0434781,78.669913 89.0434781,81.3913043 C89.0434781,84.8473043 86.906435,87.6521739 84.2732922,87.6521739 L84.2732922,87.6521739 L84.2732922,87.6521739 Z"></path>
                        </g>
                    </g>
                </g>
            </g>
        </g>
    </g>
</svg>